<svg width="12" height="12" viewBox="0 0 12 12" fill="none" xmlns="http://www.w3.org/2000/svg">
<g id="Group 23">
<path id="Vector" d="M8.49999 2C8.4011 2 8.30445 2.02933 8.22222 2.08427C8.14 2.13921 8.07589 2.21729 8.03804 2.30865C8.0002 2.40002 7.99032 2.50056 8.00961 2.59755C8.02891 2.69454 8.07654 2.78362 8.14646 2.85355C8.21639 2.92347 8.30545 2.9711 8.40244 2.99039C8.49943 3.00969 8.59998 2.99978 8.69134 2.96194C8.7827 2.92409 8.86079 2.86001 8.91573 2.77779C8.97067 2.69557 9 2.59889 9 2.5C9 2.43434 8.98706 2.36932 8.96193 2.30865C8.93681 2.24799 8.9 2.19289 8.85357 2.14646C8.80714 2.10003 8.752 2.06319 8.69134 2.03807C8.63068 2.01294 8.56565 2 8.49999 2Z" fill="white"/>
<path id="Vector_2" d="M6.00005 3C5.4067 3 4.82667 3.17593 4.33332 3.50557C3.83997 3.83522 3.45547 4.30376 3.2284 4.85194C3.00134 5.40011 2.94188 6.00333 3.05763 6.58527C3.17339 7.16722 3.45914 7.70177 3.8787 8.12133C4.29826 8.54089 4.83278 8.8266 5.41472 8.94236C5.99667 9.05811 6.59992 8.99869 7.1481 8.77163C7.69628 8.54456 8.16478 8.16006 8.49443 7.66671C8.82407 7.17336 9 6.59333 9 5.99999C9 5.20433 8.68393 4.44129 8.12132 3.87868C7.55871 3.31607 6.7957 3 6.00005 3ZM6.00005 7.92049C5.62021 7.92049 5.24888 7.80786 4.93305 7.59684C4.61723 7.38581 4.37104 7.08586 4.22568 6.73494C4.08032 6.38401 4.04233 5.99785 4.11643 5.62531C4.19053 5.25277 4.37341 4.91056 4.642 4.64198C4.91059 4.37339 5.25279 4.19047 5.62533 4.11637C5.99787 4.04227 6.38407 4.0803 6.735 4.22566C7.08593 4.37102 7.38587 4.6172 7.5969 4.93303C7.80793 5.24886 7.92052 5.62015 7.92052 5.99999C7.92052 6.50934 7.71819 6.99783 7.35802 7.358C6.99786 7.71816 6.5094 7.92049 6.00005 7.92049Z" fill="white"/>
<path id="Vector_3" d="M8.39502 12H3.60491C2.64882 12 1.73196 11.6202 1.0559 10.9441C0.37985 10.2681 0 9.35113 0 8.39505V3.60495C0 2.64887 0.37985 1.73193 1.0559 1.05587C1.73196 0.379813 2.64882 0 3.60491 0H8.39502C9.3511 0 10.268 0.379813 10.9441 1.05587C11.6201 1.73193 12 2.64887 12 3.60495V8.39505C12 9.35113 11.6201 10.2681 10.9441 10.9441C10.268 11.6202 9.3511 12 8.39502 12ZM3.60491 1.13582C2.95005 1.13582 2.32206 1.39596 1.859 1.85901C1.39595 2.32206 1.13578 2.9501 1.13578 3.60495V8.39505C1.13578 9.0499 1.39595 9.67794 1.859 10.141C2.32206 10.604 2.95005 10.8642 3.60491 10.8642H8.39502C9.04987 10.8642 9.67794 10.604 10.141 10.141C10.604 9.67794 10.8641 9.0499 10.8641 8.39505V3.60495C10.8641 2.9501 10.604 2.32206 10.141 1.85901C9.67794 1.39596 9.04987 1.13582 8.39502 1.13582H3.60491Z" fill="white"/>
</g>
</svg>
