<svg width="10" height="7" viewBox="0 0 10 7" fill="none" xmlns="http://www.w3.org/2000/svg">
<path id="Vector" d="M10 2.19421C10 1.61226 9.76892 1.05415 9.35764 0.642653C8.94636 0.231159 8.38853 0 7.80688 0H2.19308C1.61144 0 1.05361 0.231159 0.642323 0.642653C0.23104 1.05415 0 1.61226 0 2.19421V4.80579C0 5.38774 0.23104 5.94585 0.642323 6.35735C1.05361 6.76884 1.61144 7 2.19308 7H7.80688C8.38853 7 8.94636 6.76884 9.35764 6.35735C9.76892 5.94585 10 5.38774 10 4.80579V2.19421ZM6.69843 3.69677L4.18356 4.88928C4.0882 4.88928 3.75446 4.88926 3.75446 4.75808V2.20614C3.75446 2.08689 4.08818 2.01532 4.19545 2.07495L6.57924 3.38671C6.67459 3.38671 6.78189 3.58944 6.68654 3.64906" fill="white"/>
</svg>
