<svg width="23" height="23" viewBox="0 0 23 23" fill="none" xmlns="http://www.w3.org/2000/svg">
<g id="Bold / Time / Calendar">
<rect width="23" height="23" rx="5" fill="white"/>
<g id="Subtract">
<path d="M7.42692 2.39581C7.42692 1.99886 7.10513 1.67706 6.70817 1.67706C6.31122 1.67706 5.98942 1.99886 5.98942 2.39581V3.90927C4.61006 4.01972 3.70453 4.2908 3.03926 4.95607C2.37399 5.62134 2.10291 6.52687 1.99246 7.90623H21.0072C20.8968 6.52687 20.6257 5.62134 19.9604 4.95607C19.2951 4.2908 18.3896 4.01972 17.0103 3.90927V2.39581C17.0103 1.99886 16.6885 1.67706 16.2915 1.67706C15.8946 1.67706 15.5728 1.99886 15.5728 2.39581V3.84568C14.9352 3.83331 14.2206 3.83331 13.4165 3.83331H9.58317C8.7791 3.83331 8.06447 3.83331 7.42692 3.84568V2.39581Z" fill="#1C274C"/>
<path fill-rule="evenodd" clip-rule="evenodd" d="M1.9165 11.5C1.9165 10.6959 1.9165 9.98128 1.92887 9.34373H21.0708C21.0832 9.98128 21.0832 10.6959 21.0832 11.5V13.4166C21.0832 17.0307 21.0832 18.8378 19.9604 19.9606C18.8377 21.0833 17.0306 21.0833 13.4165 21.0833H9.58317C5.96907 21.0833 4.16202 21.0833 3.03926 19.9606C1.9165 18.8378 1.9165 17.0307 1.9165 13.4166V11.5ZM16.2915 13.4166C16.8208 13.4166 17.2498 12.9876 17.2498 12.4583C17.2498 11.929 16.8208 11.5 16.2915 11.5C15.7622 11.5 15.3332 11.929 15.3332 12.4583C15.3332 12.9876 15.7622 13.4166 16.2915 13.4166ZM16.2915 17.25C16.8208 17.25 17.2498 16.8209 17.2498 16.2916C17.2498 15.7624 16.8208 15.3333 16.2915 15.3333C15.7622 15.3333 15.3332 15.7624 15.3332 16.2916C15.3332 16.8209 15.7622 17.25 16.2915 17.25ZM12.4582 12.4583C12.4582 12.9876 12.0291 13.4166 11.4998 13.4166C10.9706 13.4166 10.5415 12.9876 10.5415 12.4583C10.5415 11.929 10.9706 11.5 11.4998 11.5C12.0291 11.5 12.4582 11.929 12.4582 12.4583ZM12.4582 16.2916C12.4582 16.8209 12.0291 17.25 11.4998 17.25C10.9706 17.25 10.5415 16.8209 10.5415 16.2916C10.5415 15.7624 10.9706 15.3333 11.4998 15.3333C12.0291 15.3333 12.4582 15.7624 12.4582 16.2916ZM6.70817 13.4166C7.23744 13.4166 7.6665 12.9876 7.6665 12.4583C7.6665 11.929 7.23744 11.5 6.70817 11.5C6.1789 11.5 5.74984 11.929 5.74984 12.4583C5.74984 12.9876 6.1789 13.4166 6.70817 13.4166ZM6.70817 17.25C7.23744 17.25 7.6665 16.8209 7.6665 16.2916C7.6665 15.7624 7.23744 15.3333 6.70817 15.3333C6.1789 15.3333 5.74984 15.7624 5.74984 16.2916C5.74984 16.8209 6.1789 17.25 6.70817 17.25Z" fill="#1C274C"/>
</g>
</g>
</svg>
