<svg width="55" height="39" viewBox="0 0 55 39" fill="none" xmlns="http://www.w3.org/2000/svg">
<path d="M18.6627 33.1516C18.1704 33.1499 17.6971 32.9619 17.3377 32.6255C15.5585 30.9363 14.1416 28.9026 13.1734 26.6483C12.2052 24.394 11.7059 21.9663 11.7059 19.5128C11.7059 17.0594 12.2052 14.6317 13.1734 12.3774C14.1416 10.1231 15.5585 8.08941 17.3377 6.40017C17.7212 6.08927 18.2083 5.93549 18.7007 5.96989C19.1931 6.00429 19.6541 6.22432 19.9906 6.58551C20.327 6.94671 20.5139 7.42214 20.5133 7.91576C20.5127 8.40939 20.3248 8.88439 19.9876 9.24482C18.6025 10.5724 17.5004 12.1664 16.7475 13.931C15.9946 15.6956 15.6065 17.5943 15.6065 19.5128C15.6065 21.4313 15.9946 23.33 16.7475 25.0946C17.5004 26.8592 18.6025 28.4533 19.9876 29.7808C20.2724 30.0476 20.4707 30.3937 20.5566 30.7744C20.6425 31.155 20.612 31.5527 20.4693 31.9159C20.3265 32.2791 20.078 32.5911 19.7559 32.8114C19.4338 33.0317 19.0529 33.1502 18.6627 33.1516ZM10.8691 38.3732C11.232 38.0082 11.4357 37.5144 11.4357 36.9996C11.4357 36.4849 11.232 35.9911 10.8691 35.626C8.68931 33.5464 6.95414 31.0461 5.7686 28.2765C4.58305 25.5069 3.97178 22.5255 3.97178 19.5128C3.97178 16.5001 4.58305 13.5188 5.7686 10.7492C6.95414 7.97955 8.68931 5.47927 10.8691 3.39965C11.2463 3.03535 11.4634 2.53611 11.4725 2.01177C11.4816 1.48743 11.2821 0.980937 10.9178 0.603713C10.5535 0.226489 10.0543 0.00943523 9.52992 0.000300385C9.00558 -0.00883446 8.49909 0.190698 8.12186 0.555003C5.5553 3.00063 3.51205 5.94193 2.11595 9.20065C0.719862 12.4594 0 15.9676 0 19.5128C0 23.058 0.719862 26.5663 2.11595 29.825C3.51205 33.0837 5.5553 36.025 8.12186 38.4707C8.30934 38.6471 8.52992 38.7845 8.77085 38.8752C9.01177 38.9658 9.26827 39.0079 9.52553 38.9988C9.78279 38.9897 10.0357 38.9298 10.2697 38.8224C10.5036 38.715 10.714 38.5624 10.8886 38.3732H10.8691ZM37.2308 32.6255C39.0101 30.9363 40.4269 28.9026 41.3951 26.6483C42.3633 24.394 42.8627 21.9663 42.8627 19.5128C42.8627 17.0594 42.3633 14.6317 41.3951 12.3774C40.4269 10.1231 39.0101 8.08941 37.2308 6.40017C37.044 6.2249 36.8245 6.08814 36.5849 5.99769C36.3453 5.90724 36.0902 5.86488 35.8342 5.87302C35.5782 5.88117 35.3263 5.93965 35.0928 6.04514C34.8594 6.15064 34.6491 6.30107 34.4738 6.48785C34.2986 6.67463 34.1618 6.89411 34.0714 7.13374C33.9809 7.37338 33.9385 7.62848 33.9467 7.88449C33.9548 8.1405 34.0133 8.3924 34.1188 8.6258C34.2243 8.85921 34.3747 9.06955 34.5615 9.24482C35.954 10.5681 37.0628 12.1607 37.8204 13.9259C38.5781 15.6911 38.9688 17.5919 38.9688 19.5128C38.9688 21.4338 38.5781 23.3346 37.8204 25.0998C37.0628 26.865 35.954 28.4576 34.5615 29.7808C34.1854 30.1329 33.964 30.6195 33.9457 31.1344C33.9275 31.6492 34.1138 32.1503 34.4641 32.5281C34.648 32.7264 34.8712 32.8842 35.1194 32.9916C35.3676 33.0989 35.6355 33.1534 35.9059 33.1516C36.3981 33.1499 36.8715 32.9619 37.2308 32.6255ZM46.4272 38.4707C49.0013 36.0294 51.0512 33.0895 52.4521 29.8302C53.853 26.5709 54.5755 23.0604 54.5755 19.5128C54.5755 15.9652 53.853 12.4548 52.4521 9.19545C51.0512 5.93614 49.0013 2.99626 46.4272 0.555003C46.0438 0.244102 45.5567 0.0903178 45.0642 0.124721C44.5718 0.159124 44.1108 0.379149 43.7744 0.740343C43.4379 1.10154 43.2511 1.57697 43.2516 2.0706C43.2522 2.56422 43.4401 3.03923 43.7774 3.39965C45.9572 5.47927 47.6923 7.97955 48.8779 10.7492C50.0634 13.5188 50.6747 16.5001 50.6747 19.5128C50.6747 22.5255 50.0634 25.5069 48.8779 28.2765C47.6923 31.0461 45.9572 33.5464 43.7774 35.626C43.4013 35.978 43.1799 36.4647 43.1616 36.9795C43.1433 37.4944 43.3297 37.9955 43.68 38.3732C43.8616 38.5691 44.0816 38.7256 44.3263 38.8328C44.571 38.9401 44.8351 38.9959 45.1023 38.9967C45.5945 38.995 46.0679 38.8071 46.4272 38.4707ZM31.1908 19.5128C31.1908 18.7421 30.9623 17.9887 30.5341 17.3479C30.1059 16.7071 29.4973 16.2076 28.7853 15.9127C28.0732 15.6177 27.2897 15.5406 26.5338 15.6909C25.7779 15.8413 25.0836 16.2124 24.5386 16.7574C23.9936 17.3024 23.6225 17.9967 23.4721 18.7526C23.3218 19.5085 23.3989 20.292 23.6939 21.0041C23.9888 21.7161 24.4883 22.3247 25.1291 22.7529C25.7699 23.1811 26.5233 23.4096 27.294 23.4096C28.3275 23.4096 29.3187 22.9991 30.0495 22.2683C30.7802 21.5375 31.1908 20.5463 31.1908 19.5128Z" fill="white"/>
</svg>
