<svg width="26" height="26" viewBox="0 0 26 26" fill="none" xmlns="http://www.w3.org/2000/svg">
<g id="Bold / Essentional, UI / Add Circle">
<path id="Vector" fill-rule="evenodd" clip-rule="evenodd" d="M13.0001 23.8333C18.9832 23.8333 23.8334 18.9831 23.8334 13C23.8334 7.01692 18.9832 2.16667 13.0001 2.16667C7.017 2.16667 2.16675 7.01692 2.16675 13C2.16675 18.9831 7.017 23.8333 13.0001 23.8333ZM13.8126 9.75001C13.8126 9.30127 13.4488 8.93751 13.0001 8.93751C12.5514 8.93751 12.1876 9.30127 12.1876 9.75001L12.1876 12.1875H9.75008C9.30135 12.1875 8.93758 12.5513 8.93758 13C8.93758 13.4488 9.30135 13.8125 9.75008 13.8125H12.1876V16.25C12.1876 16.6987 12.5513 17.0625 13.0001 17.0625C13.4488 17.0625 13.8126 16.6987 13.8126 16.25L13.8126 13.8125H16.2501C16.6988 13.8125 17.0626 13.4488 17.0626 13C17.0626 12.5513 16.6988 12.1875 16.2501 12.1875H13.8126V9.75001Z" fill="white" stroke="#00294F" stroke-width="0.2" stroke-linecap="round"/>
</g>
</svg>
