<?xml version="1.0" encoding="UTF-8"?>
<svg id="Layer_1" data-name="Layer 1" xmlns="http://www.w3.org/2000/svg" viewBox="0 0 1080 1080">
  <defs>
    <style>
      .cls-1 {
        fill: #b3c72c;
      }

      .cls-1, .cls-2, .cls-3, .cls-4 {
        stroke-width: 0px;
      }

      .cls-2 {
        fill: #ca000d;
      }

      .cls-4 {
        fill: #0061ae;
      }
    </style>
  </defs>
  <g>
    <g>
      <path class="cls-4" d="m577.95,664.04c-6.27-2.03-10.45-7.2-13.46-12.26-5.45-9.17-9.97-18.79-12.86-29.44-3.66-13.49-5.65-27.22-8.51-40.81-1.56-7.39-1.28-15.15-2.36-22.67-2.13-14.69-3.43-29.41-6.73-44.04-4.2-18.65-9.45-36.82-16.32-54.56-2.97-7.67-6.89-14.98-10.87-23.49,5.67.62,10.65.52,15.25,1.79,19.73,5.43,39.91,4.14,59.78,3,15.01-.86,29.83-5.02,43.98-11.18,21.18-9.23,40.69-20.74,57.08-37.21,1.3-1.3,3.04-2.16,5.63-3.96,0,6,.57,11.29-.1,16.42-2.19,16.7-6.11,33-12.66,48.59-6.62,15.78-12.67,31.85-20.11,47.23-5.9,12.2-13.17,23.8-20.48,35.24-6.96,10.9-14.56,21.41-22.3,31.78-3.19,4.27-7.58,7.62-11.21,11.59-9.6,10.51-15.25,22.94-18.74,36.74-3.84,15.19-5.7,30.38-4.1,45.97.02.24-.34.52-.88,1.27Z"/>
      <path class="cls-4" d="m538.9,354.61c-1.38-26.87,23.27-54.62,56.21-54.75,28.19-.1,55.57,24.19,55.65,54.34.09,33.13-27.83,56.67-57.1,55.79-30.25-.91-54.87-24.61-54.75-55.39Z"/>
    </g>
    <g>
      <path class="cls-1" d="m566.93,682.68c-10.37,2.33-19.5-.44-28.43-3.58-13.61-4.79-25.42-12.97-37.23-21.01-11.26-7.66-21.82-16.46-33.53-23.3-21.54-12.58-44.7-21.15-69.68-24.21-3.44-.42-6.81-1.43-12.01-2.55,24.86-14.81,45.38-32.24,59.57-56.69,13.98-24.08,22.46-49.61,25.29-78.64,2.77,2.35,4.91,3.89,6.72,5.75,11.66,11.98,19.63,26.38,26.3,41.48,4.75,10.74,9,21.74,12.66,32.9,3.04,9.28,4.35,19.12,7.37,28.4,5.44,16.74,2.57,34.97,9.38,51.31,3.87,9.28,8.14,18.59,13.65,26.95,4.8,7.3,11.59,13.3,17.48,19.9.8.9,1.46,1.92,2.48,3.29Z"/>
      <path class="cls-1" d="m390.45,461.32c25.47-4.06,49.52,23.32,49.44,45.58-.1,28.55-21.73,49.84-49.13,49.81-28.24-.03-47.77-21.38-49.04-48.11-1.08-22.76,22.25-50.97,48.73-47.29Z"/>
    </g>
    <g>
      <path class="cls-2" d="m578.32,777.77c8.58-9.87,13.25-21.73,16.49-33.99,2.57-9.73,3.85-19.56,2.02-30.06-3.55-20.39-3.57-40.97-1.19-61.74,1.74-15.19,3.77-30.16,8.2-44.77,2.58-8.49,6.13-16.48,12.92-24.24,10.08,23.95,21.83,45.34,39.43,63.34,17.46,17.86,38.1,29.92,61.85,37.75-11.77,3.67-22.14,8.75-32.52,14.2-14.3,7.51-26.59,17.22-37.61,28.75-10.1,10.57-19.53,21.83-30.08,31.92-6.58,6.3-14.32,11.63-22.24,16.17-4.69,2.69-10.74,2.99-16.18,4.37-.36-.57-.72-1.13-1.09-1.7Z"/>
      <path class="cls-2" d="m661.15,599.03c-1.25-19.54,14.72-37.7,37.78-37.71,23.78,0,39.06,17.22,38.89,38.08-.19,22.81-18.21,38.07-38.33,38.22-20.65.16-39.44-16.19-38.34-38.59Z"/>
    </g>
  </g>
  <g>
    <rect class="cls-3" x="736.75" y="272.91" width="44.74" height="5.74" transform="translate(35.19 633.89) rotate(-46.29)"/>
    <rect class="cls-3" x="672.23" y="251.17" width="125.24" height="9.58" transform="translate(70.73 661.49) rotate(-50.61)"/>
    <rect class="cls-3" x="245.14" y="763.57" width="125.24" height="9.58" transform="translate(-481.37 518.66) rotate(-50.61)"/>
    <rect class="cls-3" x="763.36" y="298.9" width="44.74" height="5.74" transform="translate(-10.04 575.98) rotate(-40.02)"/>
    <rect class="cls-3" x="786.99" y="327.64" width="44.74" height="5.74" transform="translate(-46.99 506.47) rotate(-33.82)"/>
    <rect class="cls-3" x="806.34" y="354.61" width="62.72" height="5.75" transform="translate(-70.3 428.7) rotate(-27.59)"/>
    <rect class="cls-3" x="824.22" y="391.93" width="44.74" height="5.75" transform="translate(-85.61 334.97) rotate(-21.33)"/>
    <rect class="cls-3" x="837.39" y="426.73" width="44.74" height="5.75" transform="translate(-82.16 238.47) rotate(-15.08)"/>
    <rect class="cls-3" x="846.6" y="461.56" width="60.11" height="5.74" transform="translate(-61.21 140.96) rotate(-8.88)"/>
    <rect class="cls-3" x="852.03" y="499.57" width="44.74" height="5.74" transform="translate(-21.96 40.31) rotate(-2.61)"/>
    <rect class="cls-3" x="872.84" y="517.25" width="5.75" height="44.74" transform="translate(282.15 1379.71) rotate(-86.4)"/>
    <rect class="cls-3" x="875.77" y="549.58" width="5.75" height="56.26" transform="translate(159.34 1344.75) rotate(-80.16)"/>
    <rect class="cls-3" x="863.35" y="590.94" width="5.74" height="44.74" transform="translate(37.09 1275.89) rotate(-73.93)"/>
    <rect class="cls-3" x="852.66" y="626.57" width="5.75" height="44.74" transform="translate(-69.58 1194.13) rotate(-67.69)"/>
    <rect class="cls-3" x="847.14" y="655.5" width="5.74" height="65.18" transform="translate(-160.6 1106) rotate(-61.46)"/>
    <rect class="cls-3" x="820.04" y="693.32" width="5.74" height="44.74" transform="translate(-234.34 983.32) rotate(-55.22)"/>
    <rect class="cls-3" x="798.49" y="723.65" width="5.74" height="44.74" transform="translate(-287.44 861.07) rotate(-48.98)"/>
    <rect class="cls-3" x="782.8" y="746.65" width="5.75" height="65.36" transform="translate(-319.38 838.52) rotate(-47.83)"/>
    <rect class="cls-3" x="746.18" y="776.41" width="5.74" height="44.74" transform="translate(-328.24 602.41) rotate(-36.51)"/>
    <rect class="cls-3" x="716.04" y="798.22" width="5.74" height="44.74" transform="translate(-315.67 474.39) rotate(-30.28)"/>
    <rect class="cls-3" x="688.51" y="815.6" width="5.74" height="68.32" transform="translate(-286.22 355.39) rotate(-24.04)"/>
    <rect class="cls-3" x="649.57" y="831.41" width="5.74" height="44.74" transform="translate(-229.85 240.43) rotate(-17.81)"/>
    <rect class="cls-3" x="614.03" y="842.4" width="5.74" height="44.74" transform="translate(-160.92 141.31) rotate(-11.57)"/>
    <rect class="cls-3" x="578.1" y="849.44" width="5.74" height="57.6" transform="translate(-79.15 57.83) rotate(-5.34)"/>
    <rect class="cls-3" x="520.92" y="872.02" width="44.74" height="5.74" transform="translate(-340.11 1404.24) rotate(-89.09)"/>
    <rect class="cls-3" x="483.73" y="871.03" width="44.74" height="5.74" transform="translate(-423.73 1267.95) rotate(-82.89)"/>
    <rect class="cls-3" x="436.58" y="874.14" width="61.46" height="5.75" transform="translate(-494.08 1128.53) rotate(-76.61)"/>
    <rect class="cls-3" x="410.77" y="857.01" width="44.74" height="5.75" transform="translate(-522.19 979.74) rotate(-70.42)"/>
    <rect class="cls-3" x="375.86" y="844.15" width="44.74" height="5.74" transform="translate(-537.67 836.36) rotate(-64.17)"/>
    <path class="cls-3" d="m746.41,241.86l-27.34,33.32c-69.51-49.92-158.87-71.77-249.31-53.15-171.78,35.37-282.35,203.27-246.99,375.03,13.42,65.22,45.95,121.63,90.55,164.56l-27.38,33.34c-51.93-49.04-89.82-113.95-105.31-189.22-40.15-195.04,85.42-385.7,280.46-425.83,103.67-21.33,206.07,4.14,285.32,61.96Z"/>
    <rect class="cls-3" x="326.24" y="836.6" width="66.06" height="5.74" transform="translate(-542.84 698.1) rotate(-57.92)"/>
    <rect class="cls-3" x="311.25" y="807.47" width="44.74" height="5.74" transform="translate(-509.08 569.93) rotate(-51.7)"/>
  </g>
</svg>