<svg xmlns="http://www.w3.org/2000/svg" width="14.999" height="14.999" viewBox="0 0 14.999 14.999">
  <path id="Path_67413" data-name="Path 67413" d="M229.26,162.96a7.5,7.5,0,1,0,5.65,12.41h.034v-.034a7.4,7.4,0,0,0,1.816-4.876,7.506,7.506,0,0,0-7.5-7.5Zm2.455,11.468h-1.984V170.9h2.859a9.257,9.257,0,0,1-.874,3.531Zm-5.516-3.5h2.623v3.531h-1.749A9.415,9.415,0,0,1,226.2,170.93Zm2.623-4.17v3.262H226.2a10,10,0,0,1,.74-3.262Zm.908,3.229v-3.262h2.119a10,10,0,0,1,.74,3.262Zm0-6.087a.741.741,0,0,1,.269.034,9.367,9.367,0,0,1,1.412,1.917h-1.681Zm-.908,1.951h-1.446a8.891,8.891,0,0,1,1.446-1.951Zm-4.977.908h2.119a10.852,10.852,0,0,0-.673,3.262h-2.556A6.418,6.418,0,0,1,223.845,166.76Zm-1.143,4.17h2.556a10.738,10.738,0,0,0,.773,3.531h-2.018A6.849,6.849,0,0,1,222.7,170.93Zm6.121,6.054a9.394,9.394,0,0,1-1.244-1.614h1.244Zm.908.034V175.37h1.48a9.857,9.857,0,0,1-1.278,1.648h-.2Zm4.776-2.589h-1.782a9.948,9.948,0,0,0,.773-3.531h2.321A6.128,6.128,0,0,1,234.506,174.428Zm1.345-4.439H233.5a10.088,10.088,0,0,0-.673-3.262h1.85a6.727,6.727,0,0,1,1.177,3.262Z" transform="translate(-221.76 -162.96)" fill="#0061b2"/>
</svg>
