<svg id="call-calling_linear" data-name="call-calling/linear" xmlns="http://www.w3.org/2000/svg" width="10.857" height="10.857" viewBox="0 0 10.857 10.857">
  <g id="vuesax_linear_call-calling" data-name="vuesax/linear/call-calling" transform="translate(0 0)">
    <g id="call-calling">
      <g id="call-calling-2" data-name="call-calling" transform="translate(0.905 0.905)">
        <path id="Vector" d="M0,7.387a1.151,1.151,0,0,0,.113.493,1.866,1.866,0,0,0,.308.461,2.039,2.039,0,0,0,.742.534,2.272,2.272,0,0,0,.882.172,3.77,3.77,0,0,0,1.475-.33,7.946,7.946,0,0,0,1.556-.9A13.006,13.006,0,0,0,6.559,6.555,12.854,12.854,0,0,0,7.822,5.076a8.065,8.065,0,0,0,.887-1.543,3.81,3.81,0,0,0,.326-1.479,2.34,2.34,0,0,0-.163-.873,2.082,2.082,0,0,0-.52-.755A1.325,1.325,0,0,0,7.41,0a.85.85,0,0,0-.366.081.737.737,0,0,0-.3.253L5.691,1.814a1.548,1.548,0,0,0-.181.317.715.715,0,0,0-.063.276.614.614,0,0,0,.095.321,1.539,1.539,0,0,0,.253.321l.344.357a.242.242,0,0,1,.072.181.411.411,0,0,1-.014.1c-.014.036-.027.063-.036.09a3.754,3.754,0,0,1-.421.579c-.2.235-.421.475-.656.715s-.48.461-.719.665a3.472,3.472,0,0,1-.584.416c-.023.009-.05.023-.081.036a.312.312,0,0,1-.113.018A.249.249,0,0,1,3.4,6.134l-.344-.339a1.388,1.388,0,0,0-.326-.253.6.6,0,0,0-.321-.095.722.722,0,0,0-.276.059,1.75,1.75,0,0,0-.317.176L.321,6.745a.686.686,0,0,0-.249.29A.928.928,0,0,0,0,7.387Z" transform="translate(0.014 0)" fill="none" stroke="#0061b2" stroke-width="0.8"/>
        <path id="Vector-2" data-name="Vector" d="M0,1.583A1.794,1.794,0,0,1,.529.556,1.545,1.545,0,0,1,1.583,0" transform="translate(1.583 1.583)" fill="none" stroke="#0061b2" stroke-linecap="round" stroke-linejoin="round" stroke-width="0.8"/>
        <path id="Vector-3" data-name="Vector" d="M0,3.167A3.164,3.164,0,0,1,3.167,0" transform="translate(0 0)" fill="none" stroke="#0061b2" stroke-linecap="round" stroke-linejoin="round" stroke-width="0.8"/>
      </g>
      <path id="Vector-4" data-name="Vector" d="M10.857,0H0V10.857H10.857Z" fill="none" opacity="0"/>
    </g>
  </g>
</svg>
