<svg id="_708" data-name="708" xmlns="http://www.w3.org/2000/svg" width="11.218" height="11.218" viewBox="0 0 11.218 11.218">
  <path id="Path_67239" data-name="Path 67239" d="M11.366,10.07l0,.035c-1.028-.512-1.135-.581-1.268-.381-.092.138-.36.451-.441.543s-.163.1-.3.035a3.794,3.794,0,0,1-1.123-.694,4.241,4.241,0,0,1-.776-.968c-.137-.237.15-.27.41-.764a.257.257,0,0,0-.012-.245c-.035-.07-.314-.757-.431-1.031s-.228-.238-.314-.238a.7.7,0,0,0-.639.161c-.754.829-.564,1.685.081,2.594a5.524,5.524,0,0,0,3.18,2.39,1.934,1.934,0,0,0,.879.057,1.438,1.438,0,0,0,.942-.667,1.157,1.157,0,0,0,.084-.666C11.6,10.169,11.506,10.134,11.366,10.07Z" transform="translate(-3.183 -3.383)" fill="#0061b2"/>
  <path id="Path_67240" data-name="Path 67240" d="M9.591,1.612A5.61,5.61,0,0,0,.047,5.559,5.532,5.532,0,0,0,.793,8.337L0,11.218l2.961-.772a5.6,5.6,0,0,0,8.257-4.884A5.513,5.513,0,0,0,9.584,1.63Zm.693,3.934A4.654,4.654,0,0,1,3.267,9.521l-.168-.1-1.753.456.47-1.7L1.7,8a4.636,4.636,0,0,1,7.22-5.719,4.575,4.575,0,0,1,1.36,3.267Z" transform="translate(0 0)" fill="#0061b2"/>
</svg>
