<svg xmlns="http://www.w3.org/2000/svg" width="20.499" height="22.667" viewBox="0 0 20.499 22.667">
  <g id="Group_2" data-name="Group 2" transform="translate(-2.751 -1.667)">
    <path id="Path_1" data-name="Path 1" d="M9.048,21.929a5.053,5.053,0,0,0,7.9,0A29.425,29.425,0,0,1,9.048,21.929Z" fill="#fff"/>
    <path id="Path_2" data-name="Path 2" d="M20.312,10.513V9.75A7.451,7.451,0,0,0,13,2.167,7.451,7.451,0,0,0,5.688,9.75v.763a4.761,4.761,0,0,1-.751,2.572l-1.2,1.866a3.038,3.038,0,0,0,1.647,4.561,27.942,27.942,0,0,0,15.231,0,3.038,3.038,0,0,0,1.647-4.561l-1.2-1.866A4.76,4.76,0,0,1,20.312,10.513ZM13,5.688a.813.813,0,0,1,.813.813v4.333a.813.813,0,0,1-1.625,0V6.5A.813.813,0,0,1,13,5.688Z" fill="none" fill-rule="evenodd"/>
    <path id="Path_3" data-name="Path 3" d="M21.062,13.085l-.421.27Zm1.2,1.866.421-.27Zm-18.524,0-.421-.27h0Zm1.2-1.866.421.27Zm15.678,6.428-.136-.481Zm-15.231,0,.136-.481h0Zm3.663,2.416.067-.5a.5.5,0,0,0-.46.8Zm7.9,0,.393.309a.5.5,0,0,0-.46-.8ZM19.812,9.75v.763h1V9.75Zm.83,3.605,1.2,1.866.841-.541-1.2-1.866ZM4.158,15.222l1.2-1.866-.841-.541-1.2,1.866Zm2.03-4.709V9.75h-1v.763Zm14.291,8.519a27.442,27.442,0,0,1-14.959,0l-.272.962a28.443,28.443,0,0,0,15.5,0ZM5.358,13.355a5.26,5.26,0,0,0,.83-2.842h-1a4.26,4.26,0,0,1-.671,2.3Zm14.453-2.842a5.26,5.26,0,0,0,.83,2.842l.841-.541a4.26,4.26,0,0,1-.671-2.3ZM3.317,14.681a3.538,3.538,0,0,0,1.931,5.313l.272-.962a2.539,2.539,0,0,1-1.362-3.81Zm18.524.541a2.539,2.539,0,0,1-1.362,3.81l.272.962a3.538,3.538,0,0,0,1.931-5.313ZM13,2.667A6.951,6.951,0,0,1,19.812,9.75h1A7.951,7.951,0,0,0,13,1.667Zm0-1A7.951,7.951,0,0,0,5.188,9.75h1A6.951,6.951,0,0,1,13,2.667ZM8.655,22.238A5.515,5.515,0,0,0,13,24.333v-1a4.515,4.515,0,0,1-3.559-1.714Zm.326.186a29.929,29.929,0,0,0,8.039,0l-.134-.991a28.923,28.923,0,0,1-7.77,0ZM13,24.333a5.515,5.515,0,0,0,4.345-2.1l-.786-.618A4.515,4.515,0,0,1,13,23.333ZM14.313,6.5A1.312,1.312,0,0,0,13,5.188v1a.312.312,0,0,1,.313.313Zm0,4.333V6.5h-1v4.333ZM13,12.146a1.313,1.313,0,0,0,1.313-1.312h-1a.313.313,0,0,1-.312.313Zm-1.312-1.312A1.313,1.313,0,0,0,13,12.146v-1a.313.313,0,0,1-.312-.312Zm0-4.333v4.333h1V6.5ZM13,5.188A1.312,1.312,0,0,0,11.688,6.5h1A.312.312,0,0,1,13,6.188Z" fill="#00294f"/>
  </g>
</svg>
