<svg width="23" height="23" viewBox="0 0 23 23" fill="none" xmlns="http://www.w3.org/2000/svg">
<g id="Bold / Time / Calendar Date">
<rect width="23" height="23" rx="5" fill="white"/>
<path id="Vector" d="M3.03926 19.9606L3.39281 19.607H3.39281L3.03926 19.9606ZM19.9604 19.9606L19.6069 19.607L19.9604 19.9606ZM19.9604 4.95607L20.314 4.60252L19.9604 4.95607ZM3.03926 4.95607L2.68571 4.60252H2.68571L3.03926 4.95607ZM1.92887 9.34373V8.84373H1.43847L1.42896 9.33403L1.92887 9.34373ZM21.0708 9.34373L21.5707 9.33403L21.5612 8.84373H21.0708V9.34373ZM21.0072 7.90623V8.40623H21.5489L21.5056 7.86632L21.0072 7.90623ZM1.99246 7.90623L1.49405 7.86632L1.45082 8.40623H1.99246V7.90623ZM5.98942 3.90927L6.02933 4.40767L6.48942 4.37083V3.90927H5.98942ZM7.42692 3.84568H6.92692V4.35547L7.43662 4.34558L7.42692 3.84568ZM17.0103 3.90927H16.5103V4.37083L16.9703 4.40767L17.0103 3.90927ZM15.5728 3.84568L15.5631 4.34558L16.0728 4.35547V3.84568H15.5728ZM9.34359 14.1935H9.84359V12.9864L8.99003 13.84L9.34359 14.1935ZM9.13307 14.404L9.48662 14.7576L9.48662 14.7576L9.13307 14.404ZM8.1166 14.404L7.76305 14.7576L8.1166 14.404ZM8.1166 13.3876L8.47016 13.7411L8.1166 13.3876ZM7.92692 2.39581C7.92692 1.72272 7.38127 1.17706 6.70817 1.17706V2.17706C6.82898 2.17706 6.92692 2.275 6.92692 2.39581H7.92692ZM6.70817 1.17706C6.03507 1.17706 5.48942 1.72272 5.48942 2.39581H6.48942C6.48942 2.275 6.58736 2.17706 6.70817 2.17706V1.17706ZM17.5103 2.39581C17.5103 1.72272 16.9646 1.17706 16.2915 1.17706V2.17706C16.4123 2.17706 16.5103 2.275 16.5103 2.39581H17.5103ZM16.2915 1.17706C15.6184 1.17706 15.0728 1.72272 15.0728 2.39581H16.0728C16.0728 2.275 16.1707 2.17706 16.2915 2.17706V1.17706ZM9.58317 4.33331H13.4165V3.33331H9.58317V4.33331ZM20.5832 11.5V13.4166H21.5832V11.5H20.5832ZM13.4165 20.5833H9.58317V21.5833H13.4165V20.5833ZM2.4165 13.4166V11.5H1.4165V13.4166H2.4165ZM9.58317 20.5833C7.76199 20.5833 6.4464 20.5823 5.44359 20.4474C4.45516 20.3145 3.84581 20.06 3.39281 19.607L2.68571 20.3141C3.35547 20.9839 4.21102 21.2907 5.31034 21.4385C6.39527 21.5844 7.79026 21.5833 9.58317 21.5833V20.5833ZM1.4165 13.4166C1.4165 15.2096 1.41544 16.6045 1.56131 17.6895C1.70911 18.7888 2.01594 19.6443 2.68571 20.3141L3.39281 19.607C2.93982 19.154 2.68528 18.5447 2.55239 17.5562C2.41757 16.5534 2.4165 15.2378 2.4165 13.4166H1.4165ZM20.5832 13.4166C20.5832 15.2378 20.5821 16.5534 20.4473 17.5562C20.3144 18.5447 20.0599 19.154 19.6069 19.607L20.314 20.3141C20.9837 19.6443 21.2906 18.7888 21.4384 17.6895C21.5842 16.6045 21.5832 15.2096 21.5832 13.4166H20.5832ZM13.4165 21.5833C15.2094 21.5833 16.6044 21.5844 17.6893 21.4385C18.7887 21.2907 19.6442 20.9839 20.314 20.3141L19.6069 19.607C19.1539 20.06 18.5445 20.3145 17.5561 20.4474C16.5533 20.5823 15.2377 20.5833 13.4165 20.5833V21.5833ZM1.42896 9.33403C1.41648 9.97741 1.4165 10.6973 1.4165 11.5H2.4165C2.4165 10.6945 2.41652 9.98515 2.42877 9.35342L1.42896 9.33403ZM21.5832 11.5C21.5832 10.6973 21.5832 9.97741 21.5707 9.33403L20.5709 9.35342C20.5832 9.98515 20.5832 10.6945 20.5832 11.5H21.5832ZM21.5056 7.86632C21.3924 6.4518 21.1078 5.39633 20.314 4.60252L19.6069 5.30962C20.1436 5.84636 20.4012 6.60194 20.5088 7.94614L21.5056 7.86632ZM2.68571 4.60252C1.89189 5.39633 1.60732 6.4518 1.49405 7.86632L2.49086 7.94614C2.5985 6.60194 2.85608 5.84636 3.39281 5.30962L2.68571 4.60252ZM1.92887 9.84373H21.0708V8.84373H1.92887V9.84373ZM21.0072 7.40623H1.99246V8.40623H21.0072V7.40623ZM5.94951 3.41086C4.53499 3.52413 3.47952 3.8087 2.68571 4.60252L3.39281 5.30962C3.92955 4.77289 4.68514 4.51531 6.02933 4.40767L5.94951 3.41086ZM5.48942 2.39581V3.90927H6.48942V2.39581H5.48942ZM9.58317 3.33331C8.78046 3.33331 8.0606 3.33329 7.41723 3.34577L7.43662 4.34558C8.06834 4.33333 8.77774 4.33331 9.58317 4.33331V3.33331ZM7.92692 3.84568V2.39581H6.92692V3.84568H7.92692ZM16.9703 4.40767C18.3145 4.51531 19.0701 4.77289 19.6069 5.30962L20.314 4.60252C19.5202 3.8087 18.4647 3.52413 17.0502 3.41086L16.9703 4.40767ZM17.5103 3.90927V2.39581H16.5103V3.90927H17.5103ZM13.4165 4.33331C14.2219 4.33331 14.9313 4.33333 15.5631 4.34558L15.5824 3.34577C14.9391 3.33329 14.2192 3.33331 13.4165 3.33331V4.33331ZM15.0728 2.39581V3.84568H16.0728V2.39581H15.0728ZM11.2811 12.4583C11.2811 11.9654 10.9841 11.521 10.5287 11.3323L10.146 12.2562C10.2278 12.2901 10.2811 12.3698 10.2811 12.4583H11.2811ZM11.2811 16.2916V12.4583H10.2811V16.2916H11.2811ZM10.0623 17.5104C10.7354 17.5104 11.2811 16.9647 11.2811 16.2916H10.2811C10.2811 16.4125 10.1832 16.5104 10.0623 16.5104V17.5104ZM8.84359 16.2916C8.84359 16.9647 9.38924 17.5104 10.0623 17.5104V16.5104C9.94153 16.5104 9.84359 16.4125 9.84359 16.2916H8.84359ZM8.84359 14.1935V16.2916H9.84359V14.1935H8.84359ZM9.48662 14.7576L9.69714 14.5471L8.99003 13.84L8.77952 14.0505L9.48662 14.7576ZM7.76305 14.7576C8.239 15.2336 9.01067 15.2336 9.48662 14.7576L8.77952 14.0505C8.69409 14.1359 8.55558 14.1359 8.47016 14.0505L7.76305 14.7576ZM7.76305 13.034C7.2871 13.51 7.2871 14.2816 7.76305 14.7576L8.47016 14.0505C8.38473 13.9651 8.38473 13.8266 8.47016 13.7411L7.76305 13.034ZM9.20055 11.5965L7.76305 13.034L8.47016 13.7411L9.90766 12.3036L9.20055 11.5965ZM10.5287 11.3323C10.0733 11.1437 9.54911 11.248 9.20055 11.5965L9.90766 12.3036C9.97022 12.2411 10.0643 12.2224 10.146 12.2562L10.5287 11.3323ZM13.6769 13.4166C13.6769 13.5605 13.5603 13.6771 13.4165 13.6771V12.6771C13.008 12.6771 12.6769 13.0082 12.6769 13.4166H13.6769ZM13.6769 15.3333V13.4166H12.6769V15.3333H13.6769ZM13.4165 15.0729C13.5603 15.0729 13.6769 15.1895 13.6769 15.3333H12.6769C12.6769 15.7418 13.008 16.0729 13.4165 16.0729V15.0729ZM13.1561 15.3333C13.1561 15.1895 13.2727 15.0729 13.4165 15.0729V16.0729C13.825 16.0729 14.1561 15.7418 14.1561 15.3333H13.1561ZM13.1561 13.4166V15.3333H14.1561V13.4166H13.1561ZM13.4165 13.6771C13.2727 13.6771 13.1561 13.5605 13.1561 13.4166H14.1561C14.1561 13.0082 13.825 12.6771 13.4165 12.6771V13.6771ZM13.4165 11.2396C12.2141 11.2396 11.2394 12.2143 11.2394 13.4166H12.2394C12.2394 12.7666 12.7664 12.2396 13.4165 12.2396V11.2396ZM15.5936 13.4166C15.5936 12.2143 14.6189 11.2396 13.4165 11.2396V12.2396C14.0666 12.2396 14.5936 12.7666 14.5936 13.4166H15.5936ZM15.5936 15.3333V13.4166H14.5936V15.3333H15.5936ZM13.4165 17.5104C14.6189 17.5104 15.5936 16.5357 15.5936 15.3333H14.5936C14.5936 15.9834 14.0666 16.5104 13.4165 16.5104V17.5104ZM11.2394 15.3333C11.2394 16.5357 12.2141 17.5104 13.4165 17.5104V16.5104C12.7664 16.5104 12.2394 15.9834 12.2394 15.3333H11.2394ZM11.2394 13.4166V15.3333H12.2394V13.4166H11.2394Z" fill="#00294F"/>
</g>
</svg>
