<svg width="23" height="17" viewBox="0 0 23 17" fill="none" xmlns="http://www.w3.org/2000/svg">
<path d="M20.9785 0H2.02148C0.904592 0 0 0.956817 0 2.125V14.875C0 16.0501 0.91124 17 2.02148 17H20.9785C22.0861 17 23 16.0541 23 14.875V2.125C23 0.958894 22.099 0 20.9785 0ZM20.6954 1.41667L12.9294 9.53733C12.5476 9.93872 12.04 10.1597 11.5 10.1597C10.96 10.1597 10.4524 9.93867 10.0693 9.53601L2.30458 1.41667H20.6954ZM1.34766 14.5867V2.41424L7.17124 8.50378L1.34766 14.5867ZM2.30544 15.5833L8.12673 9.50286L9.11766 10.5391C9.75402 11.208 10.6001 11.5764 11.5 11.5764C12.3999 11.5764 13.246 11.208 13.8811 10.5404L14.8733 9.50286L20.6946 15.5833H2.30544ZM21.6523 14.5867L15.8288 8.50378L21.6523 2.41424V14.5867Z" fill="#00294F"/>
</svg>
