<svg width="23" height="23" viewBox="0 0 23 23" fill="none" xmlns="http://www.w3.org/2000/svg">
<g id="Bold / Electronic, Devices / Smartphone">
<rect width="23" height="23" fill="white"/>
<path id="Vector" fill-rule="evenodd" clip-rule="evenodd" d="M11.5496 1.91669H11.4507C9.84051 1.91667 8.56509 1.91666 7.56692 2.0532C6.53966 2.19372 5.7082 2.4898 5.05249 3.15694C4.39678 3.82409 4.10578 4.67005 3.96767 5.71523C3.83347 6.73081 3.83348 8.02846 3.8335 9.66677V13.3333C3.83348 14.9716 3.83347 16.2692 3.96767 17.2848C4.10578 18.33 4.39678 19.176 5.05249 19.8431C5.7082 20.5102 6.53966 20.8063 7.56692 20.9468C8.56509 21.0834 9.84049 21.0834 11.4507 21.0834H11.5496C13.1598 21.0834 14.4352 21.0834 15.4334 20.9468C16.4607 20.8063 17.2921 20.5102 17.9478 19.8431C18.6035 19.176 18.8945 18.33 19.0327 17.2848C19.1669 16.2692 19.1668 14.9716 19.1668 13.3333V9.66679C19.1668 8.02849 19.1669 6.7308 19.0327 5.71523C18.8945 4.67005 18.6035 3.82409 17.9478 3.15694C17.2921 2.4898 16.4607 2.19372 15.4334 2.0532C14.4352 1.91666 13.1598 1.91667 11.5496 1.91669ZM8.21445 17.7403C8.21445 17.3711 8.50866 17.0717 8.87159 17.0717H14.1287C14.4917 17.0717 14.7859 17.3711 14.7859 17.7403C14.7859 18.1096 14.4917 18.4089 14.1287 18.4089H8.87159C8.50866 18.4089 8.21445 18.1096 8.21445 17.7403Z" fill="white" stroke="#00294F"/>
</g>
</svg>
