<svg width="23" height="23" viewBox="0 0 23 23" fill="none" xmlns="http://www.w3.org/2000/svg">
<g id="Bold / Users / User Circle">
<rect width="23" height="23" fill="white"/>
<path id="Vector" d="M20.5832 11.5C20.5832 16.5166 16.5164 20.5834 11.4998 20.5834C6.48325 20.5834 2.4165 16.5166 2.4165 11.5C2.4165 6.48343 6.48325 2.41669 11.4998 2.41669C16.5164 2.41669 20.5832 6.48343 20.5832 11.5ZM11.4998 12C13.3638 12 14.8748 10.489 14.8748 8.62502C14.8748 6.76106 13.3638 5.25002 11.4998 5.25002C9.63588 5.25002 8.12484 6.76106 8.12484 8.62502C8.12484 10.489 9.63588 12 11.4998 12ZM11.4998 20.1459C13.3138 20.1459 14.9987 19.5867 16.3896 18.6312C17.1423 18.1141 17.5147 17.0874 17.0349 16.2085C16.2092 14.6964 14.5404 13.875 11.4998 13.875C8.45923 13.875 6.79035 14.6964 5.96471 16.2084C5.48484 17.0873 5.85722 18.1141 6.60998 18.6312C8.00089 19.5866 9.68581 20.1459 11.4998 20.1459Z" fill="white" stroke="#00294F"/>
</g>
</svg>
