<svg width="23" height="23" viewBox="0 0 23 23" fill="none" xmlns="http://www.w3.org/2000/svg">
<g id="Bold / Security / Lock Password Unlocked">
<rect width="23" height="23" fill="white"/>
<path id="Vector" fill-rule="evenodd" clip-rule="evenodd" d="M6.46883 7.66669C6.46883 4.888 8.7214 2.63544 11.5001 2.63544C13.8435 2.63544 15.8143 4.23818 16.3729 6.40834C16.4718 6.79277 16.8637 7.0242 17.2481 6.92525C17.6325 6.82631 17.8639 6.43446 17.765 6.05003C17.0469 3.26017 14.5152 1.19794 11.5001 1.19794C7.92749 1.19794 5.03133 4.0941 5.03133 7.66669V9.63569C3.96302 9.71547 3.26734 9.9169 2.75882 10.4254C1.91675 11.2675 1.91675 12.6228 1.91675 15.3334C1.91675 18.0439 1.91675 19.3992 2.75882 20.2413C3.60088 21.0834 4.95617 21.0834 7.66675 21.0834H15.3334C18.044 21.0834 19.3993 21.0834 20.2413 20.2413C21.0834 19.3992 21.0834 18.0439 21.0834 15.3334C21.0834 12.6228 21.0834 11.2675 20.2413 10.4254C19.3993 9.58335 18.044 9.58335 15.3334 9.58335H7.66675C7.23405 9.58335 6.83588 9.58335 6.46883 9.58678V7.66669ZM7.66675 16.2917C8.19602 16.2917 8.62508 15.8626 8.62508 15.3334C8.62508 14.8041 8.19602 14.375 7.66675 14.375C7.13748 14.375 6.70842 14.8041 6.70842 15.3334C6.70842 15.8626 7.13748 16.2917 7.66675 16.2917ZM11.5001 16.2917C12.0294 16.2917 12.4584 15.8626 12.4584 15.3334C12.4584 14.8041 12.0294 14.375 11.5001 14.375C10.9708 14.375 10.5417 14.8041 10.5417 15.3334C10.5417 15.8626 10.9708 16.2917 11.5001 16.2917ZM16.2917 15.3334C16.2917 15.8626 15.8627 16.2917 15.3334 16.2917C14.8041 16.2917 14.3751 15.8626 14.3751 15.3334C14.3751 14.8041 14.8041 14.375 15.3334 14.375C15.8627 14.375 16.2917 14.8041 16.2917 15.3334Z" fill="white" stroke="#00294F" stroke-linecap="round"/>
</g>
</svg>
