<svg width="23" height="23" viewBox="0 0 23 23" fill="none" xmlns="http://www.w3.org/2000/svg">
<g id="Bold / Map &#38; Location / Global">
<rect width="23" height="23" fill="white"/>
<g id="Vector">
<path fill-rule="evenodd" clip-rule="evenodd" d="M1.94336 10.7813C2.3109 5.82424 6.4492 1.91669 11.5001 1.91669C10.7039 1.91669 9.99496 2.26572 9.41175 2.79943C8.83146 3.33047 8.34107 4.07176 7.94444 4.94804C7.54547 5.82949 7.23557 6.86042 7.02581 7.97921C6.85766 8.87605 6.75534 9.82151 6.72123 10.7813H1.94336ZM1.94336 12.2188H6.72123C6.75534 13.1785 6.85766 14.124 7.02581 15.0208C7.23557 16.1396 7.54547 17.1706 7.94444 18.052C8.34107 18.9283 8.83146 19.6696 9.41175 20.2006C9.99496 20.7343 10.7039 21.0834 11.5001 21.0834C6.4492 21.0834 2.3109 17.1758 1.94336 12.2188Z" fill="white"/>
<path d="M11.5001 3.2539C11.2366 3.2539 10.8961 3.36604 10.5002 3.72834C10.1014 4.09331 9.70213 4.66533 9.34937 5.44467C8.99896 6.21884 8.71442 7.15341 8.51861 8.19779C8.36441 9.02026 8.26875 9.89212 8.23518 10.7813H14.7651C14.7315 9.89212 14.6359 9.02026 14.4817 8.19779C14.2859 7.15341 14.0013 6.21884 13.6509 5.44467C13.2982 4.66533 12.8989 4.09331 12.5001 3.72834C12.1042 3.36604 11.7637 3.2539 11.5001 3.2539Z" fill="white"/>
<path d="M8.51861 14.8023C8.71442 15.8466 8.99896 16.7812 9.34937 17.5554C9.70213 18.3347 10.1014 18.9067 10.5002 19.2717C10.8961 19.634 11.2366 19.7461 11.5001 19.7461C11.7637 19.7461 12.1042 19.634 12.5001 19.2717C12.8989 18.9067 13.2982 18.3347 13.6509 17.5554C14.0013 16.7812 14.2859 15.8466 14.4817 14.8023C14.6359 13.9798 14.7315 13.1079 14.7651 12.2188H8.23518C8.26875 13.1079 8.36441 13.9798 8.51861 14.8023Z" fill="white"/>
<path d="M11.5001 1.91669C12.2964 1.91669 13.0053 2.26572 13.5885 2.79943C14.1688 3.33047 14.6592 4.07177 15.0559 4.94804C15.4548 5.82949 15.7647 6.86042 15.9745 7.97921C16.1426 8.87605 16.245 9.82151 16.2791 10.7813H21.0569C20.6894 5.82424 16.5511 1.91669 11.5001 1.91669Z" fill="white"/>
<path d="M15.9745 15.0208C15.7647 16.1396 15.4548 17.1706 15.0559 18.052C14.6592 18.9283 14.1688 19.6696 13.5885 20.2006C13.0053 20.7343 12.2964 21.0834 11.5001 21.0834C16.5511 21.0834 20.6894 17.1758 21.0569 12.2188H16.2791C16.245 13.1785 16.1426 14.124 15.9745 15.0208Z" fill="white"/>
<path d="M11.5001 21.0834C12.2964 21.0834 13.0053 20.7343 13.5885 20.2006C14.1688 19.6696 14.6592 18.9283 15.0559 18.052C15.4548 17.1706 15.7647 16.1396 15.9745 15.0208C16.1426 14.124 16.245 13.1785 16.2791 12.2188H21.0569C20.6894 17.1758 16.5511 21.0834 11.5001 21.0834ZM11.5001 21.0834C10.7039 21.0834 9.99496 20.7343 9.41175 20.2006C8.83146 19.6696 8.34107 18.9283 7.94444 18.052C7.54547 17.1706 7.23556 16.1396 7.02581 15.0208C6.85766 14.124 6.75534 13.1785 6.72123 12.2188H1.94336C2.3109 17.1758 6.4492 21.0834 11.5001 21.0834ZM11.5001 1.91669C10.7039 1.91669 9.99496 2.26572 9.41175 2.79943C8.83146 3.33047 8.34107 4.07176 7.94444 4.94804C7.54547 5.82949 7.23557 6.86042 7.02581 7.97921C6.85766 8.87605 6.75534 9.82151 6.72123 10.7813H1.94336C2.3109 5.82424 6.4492 1.91669 11.5001 1.91669ZM11.5001 1.91669C12.2964 1.91669 13.0053 2.26572 13.5885 2.79943C14.1688 3.33047 14.6592 4.07177 15.0559 4.94804C15.4548 5.82949 15.7647 6.86043 15.9745 7.97921C16.1426 8.87605 16.245 9.82151 16.2791 10.7813H21.0569C20.6894 5.82424 16.5511 1.91669 11.5001 1.91669ZM10.5002 3.72834C10.8961 3.36604 11.2366 3.2539 11.5001 3.2539C11.7637 3.2539 12.1042 3.36604 12.5001 3.72834C12.8989 4.09331 13.2982 4.66533 13.6509 5.44467C14.0013 6.21884 14.2859 7.15341 14.4817 8.19779C14.6359 9.02026 14.7315 9.89212 14.7651 10.7813H8.23518C8.26875 9.89212 8.36441 9.02026 8.51861 8.19779C8.71442 7.15341 8.99896 6.21884 9.34937 5.44467C9.70213 4.66533 10.1014 4.09331 10.5002 3.72834ZM8.51861 14.8023C8.71442 15.8466 8.99896 16.7812 9.34937 17.5554C9.70213 18.3347 10.1014 18.9067 10.5002 19.2717C10.8961 19.634 11.2366 19.7461 11.5001 19.7461C11.7637 19.7461 12.1042 19.634 12.5001 19.2717C12.8989 18.9067 13.2982 18.3347 13.6509 17.5554C14.0013 16.7812 14.2859 15.8466 14.4817 14.8023C14.6359 13.9798 14.7315 13.1079 14.7651 12.2188H8.23518C8.26875 13.1079 8.36441 13.9798 8.51861 14.8023Z" stroke="#00294F" stroke-linecap="round"/>
</g>
</g>
</svg>
