<svg width="23" height="23" viewBox="0 0 23 23" fill="none" xmlns="http://www.w3.org/2000/svg">
<g id="Bold / Notes / Document Add">
<rect width="23" height="23" rx="5" fill="white"/>
<g id="Vector">
<path d="M15.8306 15.8137C15.9983 15.6829 16.1504 15.5308 16.4546 15.2266L20.2471 11.4341C20.3388 11.3424 20.2969 11.1845 20.1744 11.142C19.7267 10.9867 19.1444 10.6951 18.5996 10.1503C18.0549 9.60561 17.7633 9.02327 17.608 8.57561C17.5655 8.45311 17.4076 8.41114 17.3159 8.50283L13.5234 12.2953L13.5234 12.2954C13.2192 12.5996 13.0671 12.7517 12.9362 12.9194C12.7819 13.1172 12.6496 13.3313 12.5417 13.5578C12.4502 13.7498 12.3822 13.9539 12.2461 14.362L12.0703 14.8894L11.7908 15.728L11.5287 16.5143C11.4617 16.7151 11.514 16.9365 11.6637 17.0863C11.8134 17.236 12.0349 17.2882 12.2357 17.2213L13.022 16.9592L13.8606 16.6797L14.388 16.5039L14.388 16.5039C14.7961 16.3678 15.0002 16.2998 15.1922 16.2083C15.4187 16.1003 15.6328 15.968 15.8306 15.8137Z" fill="white"/>
<path d="M21.4346 10.2467C22.244 9.43721 22.244 8.12484 21.4346 7.3154C20.6251 6.50595 19.3128 6.50595 18.5033 7.3154L18.3814 7.43732C18.2637 7.55498 18.2104 7.71932 18.2398 7.88309C18.2583 7.98612 18.2926 8.13674 18.355 8.31647C18.4797 8.6759 18.7151 9.14774 19.1587 9.59128C19.6022 10.0348 20.0741 10.2703 20.4335 10.395C20.6132 10.4574 20.7639 10.4917 20.8669 10.5101C21.0307 10.5395 21.195 10.4862 21.3127 10.3686L21.4346 10.2467Z" fill="white"/>
<path d="M15.8306 15.8137C15.9983 15.6829 16.1504 15.5308 16.4546 15.2266L20.2471 11.4341C20.3388 11.3424 20.2969 11.1845 20.1744 11.142C19.7267 10.9867 19.1444 10.6951 18.5996 10.1503C18.0549 9.60561 17.7633 9.02327 17.608 8.57561C17.5655 8.45311 17.4076 8.41114 17.3159 8.50283L13.5234 12.2953L13.5234 12.2954C13.2192 12.5996 13.0671 12.7517 12.9362 12.9194C12.7819 13.1172 12.6496 13.3313 12.5417 13.5578C12.4502 13.7498 12.3822 13.9539 12.2461 14.362L12.0703 14.8894L11.7908 15.728L11.5287 16.5143C11.4617 16.7151 11.514 16.9365 11.6637 17.0863C11.8134 17.236 12.0349 17.2882 12.2357 17.2213L13.022 16.9592L13.8606 16.6797L14.388 16.5039L14.388 16.5039C14.7961 16.3678 15.0002 16.2998 15.1922 16.2083C15.4187 16.1003 15.6328 15.968 15.8306 15.8137Z" stroke="#00294F" stroke-linecap="round"/>
<path d="M21.4346 10.2467C22.244 9.43721 22.244 8.12484 21.4346 7.3154C20.6251 6.50595 19.3128 6.50595 18.5033 7.3154L18.3814 7.43732C18.2637 7.55498 18.2104 7.71932 18.2398 7.88309C18.2583 7.98612 18.2926 8.13674 18.355 8.31647C18.4797 8.6759 18.7151 9.14774 19.1587 9.59128C19.6022 10.0348 20.0741 10.2703 20.4335 10.395C20.6132 10.4574 20.7639 10.4917 20.8669 10.5101C21.0307 10.5395 21.195 10.4862 21.3127 10.3686L21.4346 10.2467Z" stroke="#00294F" stroke-linecap="round"/>
</g>
<path id="Vector_2" fill-rule="evenodd" clip-rule="evenodd" d="M3.99776 3.03944C2.875 4.1622 2.875 5.96925 2.875 9.58335V13.4167C2.875 17.0308 2.875 18.8378 3.99776 19.9606C5.12051 21.0834 6.92757 21.0834 10.5417 21.0834H12.4583C16.0724 21.0834 17.8795 21.0834 19.0022 19.9606C20.107 18.8559 20.1247 17.0886 20.125 13.5893L17.4241 16.2901C17.1656 16.5489 16.9539 16.7607 16.7147 16.9473C16.4346 17.1658 16.1314 17.3531 15.8107 17.506C15.5369 17.6365 15.2527 17.7311 14.9057 17.8466L12.6903 18.5851C11.973 18.8242 11.182 18.6375 10.6473 18.1028C10.1126 17.568 9.92587 16.7771 10.165 16.0597L10.4271 15.2734L10.8824 13.9075L10.9034 13.8444C11.019 13.4974 11.1136 13.2131 11.2441 12.9394C11.3969 12.6186 11.5843 12.3155 11.8028 12.0353C11.9893 11.7962 12.2012 11.5844 12.46 11.3259L16.2995 7.48641L17.365 6.4209L17.4869 6.29897C18.1725 5.61338 19.0711 5.27067 19.9697 5.27085C19.8247 4.28324 19.5444 3.58157 19.0022 3.03944C17.8795 1.91669 16.0724 1.91669 12.4583 1.91669H10.5417C6.92757 1.91669 5.12051 1.91669 3.99776 3.03944ZM6.94792 8.62502C6.94792 8.22807 7.26971 7.90627 7.66667 7.90627H13.8958C14.2928 7.90627 14.6146 8.22807 14.6146 8.62502C14.6146 9.02198 14.2928 9.34377 13.8958 9.34377H7.66667C7.26971 9.34377 6.94792 9.02198 6.94792 8.62502ZM6.94792 12.4584C6.94792 12.0614 7.26971 11.7396 7.66667 11.7396H10.0625C10.4595 11.7396 10.7812 12.0614 10.7812 12.4584C10.7812 12.8553 10.4595 13.1771 10.0625 13.1771H7.66667C7.26971 13.1771 6.94792 12.8553 6.94792 12.4584ZM6.94792 16.2917C6.94792 15.8947 7.26971 15.5729 7.66667 15.5729H9.10417C9.50112 15.5729 9.82292 15.8947 9.82292 16.2917C9.82292 16.6886 9.50112 17.0104 9.10417 17.0104H7.66667C7.26971 17.0104 6.94792 16.6886 6.94792 16.2917Z" stroke="#00294F"/>
</g>
</svg>
